<svg id="Icons" height="512" viewBox="0 0 74 74" width="512" xmlns="http://www.w3.org/2000/svg"><path d="m27.486 52.974a25.486 25.486 0 1 1 18.021-43.508 25.487 25.487 0 0 1 -18.021 43.508zm0-48.961a23.469 23.469 0 1 0 16.607 6.867 23.413 23.413 0 0 0 -16.607-6.867z"/><path d="m64.587 72a7.386 7.386 0 0 1 -5.241-2.167l-20.389-20.394 1.414-1.414 20.389 20.39a5.413 5.413 0 1 0 7.655-7.655l-20.39-20.389 1.414-1.414 20.39 20.389a7.409 7.409 0 0 1 -5.242 12.654z"/><path d="m15 26.486h24.973v2h-24.973z"/></svg>